<!DOCTYPE svg PUBLIC "-//W3C//DTD SVG 1.1//EN" "http://www.w3.org/Graphics/SVG/1.1/DTD/svg11.dtd">
<!-- Uploaded to: SVG Repo, www.svgrepo.com, Transformed by: SVG Repo Mixer Tools -->
<svg height="800px" width="800px" version="1.1" id="Layer_1" xmlns="http://www.w3.org/2000/svg" xmlns:xlink="http://www.w3.org/1999/xlink" viewBox="0 0 512 512" xml:space="preserve" fill="#000000">
<g id="SVGRepo_bgCarrier" stroke-width="0"/>
<g id="SVGRepo_tracerCarrier" stroke-linecap="round" stroke-linejoin="round"/>
<g id="SVGRepo_iconCarrier"> <path style="fill:##00B6BD;" d="M344.016,512c-7.835,0-14.188-6.352-14.188-14.188v-78.73c0-7.836,6.353-14.188,14.188-14.188 c7.835,0,14.188,6.352,14.188,14.188v78.73C358.204,505.648,351.852,512,344.016,512z"/> <path style="fill:#00d7df;" d="M256,246.661l91.732,94.276h101.569c12.342,0,18.548-14.9,9.854-23.66L256,112.556L52.845,317.277 c-8.693,8.761-2.489,23.66,9.854,23.66h101.569L256,246.661z"/> <g> <path style="fill:##00B6BD;" d="M469.226,307.283L266.071,102.562c-2.663-2.684-6.29-4.194-10.071-4.194 c-3.781,0-7.408,1.51-10.071,4.194L121.073,228.38l-57.638-0.001L256,34.331l193.085,194.572 c5.522,5.562,14.502,5.597,20.065,0.077c5.562-5.519,5.596-14.503,0.077-20.065L266.072,4.194C263.408,1.51,259.781,0,256,0 c-3.781,0-7.408,1.51-10.072,4.194L42.773,208.915c-8.009,8.07-10.359,20.069-5.987,30.564 c4.371,10.495,14.543,17.278,25.913,17.278h30.214l-50.14,50.526c-8.009,8.07-10.359,20.069-5.987,30.564 c4.371,10.495,14.543,17.278,25.913,17.278h91.097v142.686c0,7.836,6.353,14.188,14.188,14.188s14.188-6.352,14.188-14.188V342.883 L256,267.007l81.564,83.825c2.672,2.745,6.339,4.293,10.169,4.293h101.569c11.37,0,21.542-6.782,25.913-17.278 S477.236,315.355,469.226,307.283z M353.724,326.749l-87.555-89.981c-2.672-2.745-6.339-4.293-10.169-4.293 c-3.829,0-7.497,1.548-10.169,4.293l-87.555,89.981l-94.841-0.003L256,132.699l192.563,194.052h-94.839V326.749z"/> <path style="fill:##00B6BD;" d="M256,481.241c-7.835,0-14.188-6.352-14.188-14.188V331.904c0-7.836,6.353-14.188,14.188-14.188 c7.835,0,14.188,6.352,14.188,14.188v135.149C270.188,474.889,263.836,481.241,256,481.241z"/> </g> </g>
</svg>